<svg xmlns="http://www.w3.org/2000/svg" viewBox="0 0 290.3 290.06"><g id="Layer_2" data-name="Layer 2"><g id="Layer_1-2" data-name="Layer 1"><line x1="88.25" y1="202.23" x2="88.24" y2="202.23"/><line x1="207.73" y1="290.06" x2="202.3" y2="290.06"/><path d="M207.73,290.06H202.3"/><path d="M88.24,0V203a87.84,87.84,0,0,1-37.48,71.3A87.43,87.43,0,0,1,5.67,290.06H.24V81.53A88,88,0,0,1,88,0Z"/><path d="M.24,81.53V94.47C.08,92.33,0,90.18,0,88S.08,83.67.24,81.53Z"/><path d="M189.27,0V202.23a87.91,87.91,0,0,1-37.48,72.06h0a87.36,87.36,0,0,1-27.16,12.8,85.63,85.63,0,0,1-13.28,2.56c-1.53.18-3.08.32-4.64.41h-5.43V88a88,88,0,0,1,88-88Z"/><path d="M290.3,0V197.09a3.07,3.07,0,0,0-.17-.31,101,101,0,0,0-17.29-22.52h0a100.77,100.77,0,0,0-26.92-18.91,99.57,99.57,0,0,0-19.69-7,100.87,100.87,0,0,0-23.92-2.86V88a88,88,0,0,1,88-88Z"/><path d="M88.25,202.23c0,.25,0,.51,0,.76v-1.52C88.25,201.72,88.25,202,88.25,202.23Z"/><path d="M88.25,202.23c0,.25,0,.51,0,.76v-1.52C88.25,201.72,88.25,202,88.25,202.23Z"/><line x1="106.7" y1="290.06" x2="101.27" y2="290.06"/><path d="M287.39,224.71h0a88,88,0,0,1-79.66,65.34H202.3V158.47a87.72,87.72,0,0,1,85.09,66.24Z"/><line x1="207.73" y1="290.06" x2="202.3" y2="290.06"/></g></g></svg>